<svg viewBox="0 0 512 512" xmlns="http://www.w3.org/2000/svg" role="img" aria-label="Caracas Research">
  <defs>
    <clipPath id="circle">
      <circle cx="256" cy="256" r="212"/>
    </clipPath>
  </defs>
  <rect width="512" height="512" fill="#ffffff"/>
  <circle cx="256" cy="256" r="224" fill="#001f44"/>
  <circle cx="256" cy="256" r="206" fill="#ffffff"/>
  <g clip-path="url(#circle)">
    <rect x="44" y="44" width="424" height="141.33" fill="#F4D024"/>
    <rect x="44" y="185.33" width="424" height="141.34" fill="#003893"/>
    <rect x="44" y="326.67" width="424" height="141.33" fill="#CF142B"/>
  </g>
  <g fill="#ffffff">
    <path d="M142 244l4.4 13.5h14.2l-11.5 8.4 4.4 13.5-11.5-8.4-11.5 8.4 4.4-13.5-11.5-8.4h14.2z"/>
    <path d="M169 205l4.4 13.5h14.2l-11.5 8.4 4.4 13.5-11.5-8.4-11.5 8.4 4.4-13.5-11.5-8.4h14.2z"/>
    <path d="M206 179l4.4 13.5h14.2l-11.5 8.4 4.4 13.5-11.5-8.4-11.5 8.4 4.4-13.5-11.5-8.4h14.2z"/>
    <path d="M248 168l4.4 13.5h14.2l-11.5 8.4 4.4 13.5-11.5-8.4-11.5 8.4 4.4-13.5-11.5-8.4h14.2z"/>
    <path d="M290 173l4.4 13.5h14.2l-11.5 8.4 4.4 13.5-11.5-8.4-11.5 8.4 4.4-13.5-11.5-8.4h14.2z"/>
    <path d="M329 196l4.4 13.5h14.2l-11.5 8.4 4.4 13.5-11.5-8.4-11.5 8.4 4.4-13.5-11.5-8.4h14.2z"/>
    <path d="M358 232l4.4 13.5h14.2l-11.5 8.4 4.4 13.5-11.5-8.4-11.5 8.4 4.4-13.5-11.5-8.4h14.2z"/>
    <path d="M374 274l4.4 13.5h14.2l-11.5 8.4 4.4 13.5-11.5-8.4-11.5 8.4 4.4-13.5-11.5-8.4h14.2z"/>
  </g>
</svg>
